<svg width="99" height="90" viewBox="0 0 99 90" fill="none" xmlns="http://www.w3.org/2000/svg">
<path d="M16.0598 52.287C16.4324 52.2105 16.8256 52.1539 17.2402 52.1188C17.2562 52.1174 17.2722 52.1161 17.2882 52.1148C17.2723 52.1175 17.2564 52.1201 17.2406 52.1227C16.8378 52.1894 16.4443 52.244 16.0598 52.287C-0.40011 54.1301 -0.149924 34.8107 10.407 34.3284C6.11946 26.0539 9.42402 18.5183 16.3052 19.5064C17.0466 19.6604 24.3237 22.0635 22.3757 24.2738C22.3247 24.3317 22.2673 24.3895 22.2033 24.4471L22.3757 24.2738C24.3237 22.0635 17.0466 19.6604 16.3052 19.5064C9.42402 18.5183 6.11946 26.0539 10.407 34.3284C-0.149924 34.8107 -0.40011 54.1301 16.0598 52.287Z" fill="#051885"/>
<path d="M42.3553 87.1936C38.4259 86.6582 37.0575 85.1616 35.4741 81.2647C11.1258 86.8169 23.1863 67.9249 17.2882 70.3953C11.3901 72.8656 5.00041 53.1029 17.2882 52.1148M17.2882 52.1148C19.289 57.9043 20.5646 60.3072 23.6778 60.0199M17.2882 52.1148C-0.406183 55.0792 -0.4062 34.8225 10.407 34.3284C6.11946 26.0539 9.42402 18.5183 16.3052 19.5064M23.6778 60.0199C25.1751 56.5295 26.7545 55.713 31.0505 56.5614M23.6778 60.0199C22.2033 62.4902 22.1421 64.7053 24.6609 66.4427M17.2882 52.6089C16.7967 47.6682 16.8226 46.1833 21.2203 44.7038M16.3052 19.5064C17.0661 19.6644 24.7095 22.1909 22.2033 24.4471M16.3052 19.5064C15.3222 9.13099 23.6778 2.70812 32.525 6.66065M22.2033 24.4471C19.6971 26.7032 19.7458 27.9055 21.2203 29.3877M22.2033 24.4471L26.1354 20.4945M32.525 6.66065C30.6009 11.7506 30.6622 14.1869 33.5081 17.5301M32.525 6.66065C39.8977 -0.75035 49.7279 3.69626 48.7449 14.5657V35.3165M48.7449 35.3165C43.9044 26.2857 40.5255 24.2626 33.0166 27.4115C28.7071 29.6136 26.9491 31.2651 27.1184 36.3047C27.2582 46.3683 31.3528 50.4143 43.8298 55.5733M48.7449 35.3165C52.8269 28.2347 55.0838 26.283 59.0666 25.9293C67.3336 25.5455 69.8927 28.2423 70.3714 38.775C69.2479 44.6681 61.9596 51.1159 48.7449 58.5377C43.4833 61.1442 41.6927 63.0887 39.4062 66.9368C37.3189 69.9705 37.504 71.831 39.4062 75.3359C47.6587 87.0384 52.8406 89.6459 63.9818 80.7707C77.3333 84.6824 80.1035 82.561 80.6931 70.3953C85.2008 70.1978 87.5694 69.9172 88.5573 65.9487C89.4499 60.8986 89.1104 57.9131 87.5743 55.9055M54.643 79.7826C60.9914 72.9608 60.5678 69.0609 54.1515 61.9961M72.8289 61.008C78.4502 57.1249 80.2785 54.2936 79.9109 51.2802M72.8289 61.008C71.2078 56.7782 69.5853 56.4428 66.4393 56.5614M72.8289 61.008C73.7384 63.3233 73.842 64.6215 72.8289 66.9368M76.761 44.7038C78.4637 47.2138 79.6678 49.2868 79.9109 51.2802M79.9109 51.2802C80.0914 51.7992 80.2412 52.0159 80.6931 52.1148C83.9106 53.1146 86.2126 54.1258 87.5743 55.9055M87.5743 55.9055C96.4215 49.1504 96.4215 38.2809 87.5743 34.3284C91.7164 25.5495 86.5913 17.5301 82.6592 19.5064L81.3485 20.4945M76.761 23.953C77.9952 26.6296 78.1461 28.0662 76.2695 30.3759M76.761 23.953C74.7401 20.7149 73.5608 19.86 71.3544 20.4945M76.761 23.953L81.3485 20.4945M81.3485 20.4945C83.1507 8.63693 71.3544 2.21406 65.4563 6.66066M65.4563 6.66066C68.4477 11.0488 68.6807 13.3566 64.9648 17.0361M65.4563 6.66066C62.5072 2.70813 56.2116 1.90367 52.1855 6.66066" stroke="white" stroke-width="5.5"/>
</svg>
